<mxfile host="app.diagrams.net" agent="Mozilla/5.0 (Windows NT 10.0; Win64; x64) AppleWebKit/537.36 (KHTML, like Gecko) Chrome/133.0.0.0 Safari/537.36 Edg/133.0.0.0" version="26.0.15">
  <diagram name="第 1 页" id="WtR9e3HdYUOJ1lMreugZ">
    <mxGraphModel dx="1826" dy="755" grid="0" gridSize="10" guides="1" tooltips="1" connect="1" arrows="1" fold="1" page="0" pageScale="1" pageWidth="827" pageHeight="1169" math="0" shadow="0">
      <root>
        <mxCell id="0" />
        <mxCell id="1" parent="0" />
        <mxCell id="F2PklvX9BzaPfLRtc6xG-1" value="管理员" style="shape=umlActor;verticalLabelPosition=bottom;verticalAlign=top;html=1;outlineConnect=0;" vertex="1" parent="1">
          <mxGeometry x="-175" y="336" width="30" height="60" as="geometry" />
        </mxCell>
        <mxCell id="F2PklvX9BzaPfLRtc6xG-2" value="员工管理" style="ellipse;whiteSpace=wrap;html=1;" vertex="1" parent="1">
          <mxGeometry x="31" y="111" width="120" height="80" as="geometry" />
        </mxCell>
        <mxCell id="F2PklvX9BzaPfLRtc6xG-3" value="物品种类管理" style="ellipse;whiteSpace=wrap;html=1;" vertex="1" parent="1">
          <mxGeometry x="31" y="202" width="120" height="80" as="geometry" />
        </mxCell>
        <mxCell id="F2PklvX9BzaPfLRtc6xG-4" value="供应商信息管理" style="ellipse;whiteSpace=wrap;html=1;" vertex="1" parent="1">
          <mxGeometry x="31" y="298" width="120" height="80" as="geometry" />
        </mxCell>
        <mxCell id="F2PklvX9BzaPfLRtc6xG-5" value="APIKEY管理" style="ellipse;whiteSpace=wrap;html=1;" vertex="1" parent="1">
          <mxGeometry x="31" y="394" width="120" height="80" as="geometry" />
        </mxCell>
        <mxCell id="F2PklvX9BzaPfLRtc6xG-6" value="系统数据统计" style="ellipse;whiteSpace=wrap;html=1;" vertex="1" parent="1">
          <mxGeometry x="31" y="482" width="120" height="80" as="geometry" />
        </mxCell>
        <mxCell id="F2PklvX9BzaPfLRtc6xG-7" value="日志管理" style="ellipse;whiteSpace=wrap;html=1;" vertex="1" parent="1">
          <mxGeometry x="31" y="570" width="120" height="80" as="geometry" />
        </mxCell>
      </root>
    </mxGraphModel>
  </diagram>
</mxfile>
